<?xml version="1.0" encoding="utf-8"?>
<!-- Generator: Adobe Illustrator 16.0.0, SVG Export Plug-In . SVG Version: 6.00 Build 0)  -->
<!DOCTYPE svg PUBLIC "-//W3C//DTD SVG 1.1//EN" "http://www.w3.org/Graphics/SVG/1.1/DTD/svg11.dtd">
<svg version="1.1" id="Capa_1" xmlns="http://www.w3.org/2000/svg" xmlns:xlink="http://www.w3.org/1999/xlink" x="0px" y="0px"
	 width="879.992px" height="518.404px" viewBox="0 0 879.992 518.404" enable-background="new 0 0 879.992 518.404"
	 xml:space="preserve">
<g>
	<g>
		<path fill="#535355" d="M8.136,517.98v-49.473h12.048v49.473H8.136z"/>
		<path fill="#535355" d="M62.96,468.369h12.053v49.611H62.96l-20.151-31.222v31.222H30.757v-49.611h12.052l20.151,31.217V468.369z"
			/>
		<path fill="#535355" d="M82.199,477.67v-9.162h39.047v9.162h-13.537v40.311H95.661V477.67H82.199z"/>
		<path fill="#535355" d="M158.385,468.369v9.158h-17.9v10.646h15.783v9.157h-15.783v11.489h17.9v9.161h-29.957v-49.611H158.385z"/>
		<path fill="#535355" d="M180.791,498.739v19.241h-12.053v-49.473h19.523c5.73,0,10.191,1.479,13.388,4.44
			c3.196,2.958,4.796,6.528,4.796,10.708c0,2.87-0.869,5.666-2.605,8.39c-1.744,2.726-4.586,4.651-8.531,5.782l12.123,20.152
			h-14.095l-11.136-19.241H180.791z M180.791,477.67v11.91h7.471c1.833,0,3.279-0.542,4.336-1.623
			c1.056-1.077,1.586-2.503,1.586-4.261c0-1.763-0.539-3.205-1.623-4.336c-1.08-1.128-2.512-1.69-4.299-1.69H180.791z"/>
		<path fill="#535355" d="M248.021,468.369h12.049v49.611h-12.049l-20.15-31.222v31.222h-12.057v-49.611h12.057l20.15,31.217
			V468.369z"/>
		<path fill="#535355" d="M300.595,468.369v9.158h-17.899v10.646h15.787v9.157h-15.787v11.489h17.899v9.161h-29.952v-49.611H300.595
			z"/>
		<path fill="#535355" d="M307.572,477.67v-9.162h39.041v9.162h-13.531v40.311h-12.048V477.67H307.572z"/>
		<path fill="#535355" d="M374.938,469.144h17.481c4.978,0,8.829,1.209,11.56,3.628c2.721,2.416,4.088,5.533,4.088,9.338
			c0,5.449-3.125,9.043-9.377,10.783c3.148,0.516,5.684,1.926,7.609,4.226c1.926,2.306,2.894,4.956,2.894,7.966
			c0,3.713-1.442,6.792-4.335,9.229c-2.889,2.446-6.754,3.667-11.592,3.667h-18.328V469.144z M381.353,474.285v16.069h10.782
			c2.963,0,5.275-0.716,6.945-2.146c1.665-1.438,2.502-3.386,2.502-5.854c0-2.463-0.837-4.426-2.502-5.884
			c-1.67-1.456-3.982-2.185-6.945-2.185H381.353z M381.353,512.906h11.56c3.098,0,5.53-0.774,7.293-2.328
			c1.764-1.549,2.643-3.673,2.643-6.373c0-2.705-0.949-4.83-2.855-6.377c-1.898-1.554-4.429-2.328-7.573-2.328h-11.066V512.906z"/>
		<path fill="#535355" d="M451.76,517.98l-3.81-10.715h-21.7l-3.81,10.715h-6.55l17.756-48.837h7.047l17.69,48.837H451.76z
			 M428.078,502.193h18.044l-9.024-25.229L428.078,502.193z"/>
		<path fill="#535355" d="M498.979,469.144h6.41v48.837h-6.41l-25.798-38.76v38.76h-6.415v-48.837h6.415l25.798,38.757V469.144z"/>
		<path fill="#535355" d="M531.392,469.144c7.894,0,14.118,2.207,18.672,6.621c4.559,4.419,6.843,10.429,6.843,18.042
			c0,7.609-2.284,13.548-6.843,17.795c-4.554,4.254-10.778,6.379-18.672,6.379h-15.435v-48.837H531.392z M522.372,513.046h9.02
			c6.159,0,10.848-1.691,14.095-5.075c3.237-3.379,4.865-8.101,4.865-14.164c0-6.059-1.628-10.78-4.865-14.164
			c-3.247-3.385-7.936-5.075-14.095-5.075h-9.02V513.046z"/>
		<path fill="#535355" d="M598.688,517.98l-3.801-10.715h-21.709l-3.805,10.715h-6.551l17.756-48.837h7.053l17.68,48.837H598.688z
			 M575.016,502.193h18.039l-9.02-25.229L575.016,502.193z"/>
		<path fill="#535355" d="M668.537,517.98l-3.811-10.715h-21.709l-3.801,10.715h-6.554l17.76-48.837h7.048l17.686,48.837H668.537z
			 M644.851,502.193h18.039l-9.02-25.229L644.851,502.193z"/>
		<path fill="#535355" d="M715.746,469.144h6.41v48.837h-6.41l-25.793-38.76v38.76h-6.415v-48.837h6.415l25.793,38.757V469.144z"/>
		<path fill="#535355" d="M737.381,511.354c-4.795-4.693-7.191-10.652-7.191-17.862c0-7.212,2.396-13.152,7.191-17.83
			c4.797-4.675,10.686-7.012,17.69-7.012c5.075,0,9.597,1.197,13.564,3.594c3.973,2.393,6.894,5.849,8.769,10.358h-7.745
			c-2.912-5.498-7.778-8.245-14.588-8.245c-5.308,0-9.689,1.749-13.146,5.25c-3.451,3.502-5.178,8.141-5.178,13.918
			c0,5.781,1.727,10.431,5.178,13.955c3.456,3.521,7.838,5.283,13.146,5.283c3.237,0,6.131-0.716,8.671-2.146
			c2.535-1.435,4.503-3.49,5.917-6.168h7.745c-1.875,4.51-4.796,7.964-8.769,10.357c-3.968,2.397-8.489,3.598-13.564,3.598
			C748.066,518.404,742.178,516.053,737.381,511.354z"/>
		<path fill="#535355" d="M818.502,469.144h6.484v48.837h-6.484v-22.058h-24.604v22.058h-6.414v-48.837h6.414v21.707h24.604V469.144
			z"/>
		<path fill="#535355" d="M869.237,517.98l-3.806-10.715h-21.704l-3.81,10.715h-6.555l17.766-48.837h7.042l17.69,48.837H869.237z
			 M845.556,502.193h18.039l-9.02-25.229L845.556,502.193z"/>
	</g>
	<path fill="#EA345F" d="M94.619,138.649c0.148-1.865,0.721-5.36,1.67-10.436c0.926-5.089,2.07-10.915,3.368-17.516
		c1.34-6.587,2.749-13.553,4.257-20.909c1.483-7.336,2.995-14.393,4.512-21.166l14.104-63.542h58.77l17.75,77.938
		c0.968,4.521,1.902,9.315,2.875,14.404c0.907,5.075,1.744,10.069,2.387,14.958c0.623,4.917,1.274,9.615,1.818,14.137
		c0.572,4.521,1.033,8.545,1.41,12.131h1.437c0.177-3.205,0.633-7.242,1.392-12.131c0.748-4.892,1.549-9.918,2.395-15.132
		c0.865-5.164,1.703-10.157,2.559-14.958c0.838-4.777,1.545-8.701,2.104-11.706l9.633-42.918h-15.546V5.082h80.743v36.723h-15.513
		l-42.079,160.673h-66.938l-16.945-67.207c-0.568-2.461-1.215-5.227-1.969-8.317c-0.734-3.128-1.437-6.272-1.963-9.482
		c-0.566-3.184-1.135-6.31-1.721-9.303c-0.53-3.038-1.037-5.668-1.404-7.929h-1.135c-0.363,2.103-0.791,4.672-1.275,7.773
		c-0.465,3.119-1.004,6.314-1.697,9.594c-0.66,3.298-1.299,6.48-1.968,9.464c-0.67,3.028-1.274,5.573-1.814,7.636l-17.248,67.772
		h-65.5L15.793,41.805H0V5.082h93.182v36.723H76.795l7.34,41.216c0.781,3.398,1.6,7.822,2.567,13.283
		c0.911,5.444,1.796,10.957,2.642,16.508c0.885,5.568,1.587,10.743,2.289,15.539c0.638,4.789,1.154,8.252,1.549,10.298H94.619z
		 M307.643,5.082h170.26v62.409h-48.842V42.37h-45.201v38.969h53.662v37.544h-53.662v46.032h45.201v-26.266h48.842v63.828h-170.26
		v-37.563h17.797V42.37h-17.797V5.082z M493.815,202.478V131.31h52.55c0,6.049,1.316,10.831,3.963,14.408
		c2.652,3.58,5.783,6.359,9.448,8.308c3.685,1.979,7.53,3.358,11.583,4.105c4.056,0.763,7.586,1.228,10.615,1.405
		c2.418,0,5.064-0.177,7.865-0.544c2.842-0.37,5.434-1.079,7.773-2.128c2.372-1.009,4.344-2.431,5.959-4.23
		c1.6-1.798,2.399-4.187,2.399-7.206c0-3.584-2.698-6.531-8.028-8.889c-5.392-2.352-12.095-4.656-20.086-6.931
		c-8.01-2.242-16.705-4.833-26.119-7.752c-9.424-2.91-18.128-6.929-26.105-11.992c-8.015-5.099-14.686-11.539-20.086-19.372
		c-5.336-7.789-8.01-17.726-8.01-29.794c0-10.327,2.186-19.37,6.609-27.077c4.434-7.733,10.011-14.039,16.686-18.928
		c6.647-4.894,13.914-8.555,21.756-11.043C550.334,1.235,557.775,0,564.721,0c5.852,0,11.689,0.521,17.523,1.542
		c5.828,1.054,11.373,2.7,16.657,4.961c5.261,2.263,10.034,5.227,14.243,8.875c4.266,3.689,7.801,8.15,10.615,13.427l2.824-23.724
		h48.544v70.882h-51.089c0-5.272-0.973-9.92-2.819-13.978c-1.888-4.042-4.493-7.485-7.786-10.313
		c-3.289-2.798-7.146-4.931-11.583-6.354c-4.415-1.414-9.062-2.117-13.955-2.117c-2.061,0-4.242,0.352-6.499,0.986
		c-2.27,0.679-4.372,1.598-6.354,2.828c-2.005,1.228-3.592,2.777-4.805,4.656c-1.233,1.896-1.848,4.059-1.848,6.503
		c0,4.896,2.782,8.948,8.322,12.146c5.559,3.196,12.49,6.208,20.766,9.031c8.303,2.816,17.238,5.88,26.835,9.176
		c9.62,3.3,18.536,7.394,26.816,12.275c8.29,4.903,15.202,11.013,20.751,18.376c5.592,7.338,8.383,16.567,8.383,27.682
		c0,11.097-2.345,20.414-6.969,27.929c-4.582,7.54-10.541,13.701-17.783,18.521c-7.238,4.782-15.275,8.21-24.146,10.303
		c-8.843,2.075-17.49,3.105-25.988,3.105c-7.137,0-13.699-0.761-19.729-2.258c-6.047-1.528-11.476-3.494-16.393-5.945
		c-4.902-2.435-9.284-5.205-13.145-8.313c-3.843-3.124-7.113-6.272-9.746-9.48l-3.094,21.753H493.815z M879.992,5.082v73.41H838.49
		V42.37h-23.733v122.545h23.435v37.563H733.162v-37.563h23.156V42.37h-24.301v36.123h-41.506V5.082H879.992z M382.082,264.391
		h20.301v70.3l-72.799-108.565h-85.093v38.265h17.216v130.758h-17.463v38.236h90.996v-38.236h-22.844v-74.723l75.621,112.959h63.729
		V264.391h19.588v-38.265h-89.252V264.391z M486.945,265.277h18.662v128.672h-18.662v39.437h178.786v-66.993h-51.298v27.557H566.99
		v-48.314h56.342v-39.437H566.99v-40.921h47.443v26.384h51.298v-65.535H486.945V265.277z M681.059,226.126v77.092h43.577v-37.941
		h25.501v128.672h-24.311v39.437h110.287v-39.437H811.52V265.277h24.9v37.941h43.572v-77.092H681.059z"/>
	
		<linearGradient id="SVGID_1_" gradientUnits="userSpaceOnUse" x1="1563.5508" y1="459.9893" x2="1771.415" y2="459.9893" gradientTransform="matrix(-1 0 0 -1 1779.4766 789.4746)">
		<stop  offset="0" style="stop-color:#31A198"/>
		<stop  offset="1" style="stop-color:#00A2D6"/>
	</linearGradient>
	<path fill="url(#SVGID_1_)" d="M215.516,432.844h-69.143l-0.009-69.175h69.151V432.844z M8.062,363.581l0.009,69.16h69.156
		l0.01-69.128L8.062,363.581z M215.516,225.647h-69.202l0.051,69.188h69.151V225.647z M8.062,225.585v69.158H77.25l-0.014-69.158
		H8.062z M100.1,386.571h23.881l-0.023-22.928h22.407v-22.68h23.208v-23.837l-23.199,0.005l-0.009-22.347v-0.347H123.98v-22.942
		H100.1v22.942H77.752l-0.553,0.347l0.027,22.347H54.508v23.832h22.719l-0.027,22.68h22.9V386.571z M123.98,249.448v-23.847H100.1
		l-0.028,23.847H123.98z M100.1,409.556v23.83h23.881v-23.83H100.1z M215.889,341.43l0.037-23.858h-23.863v23.872L215.889,341.43z
		 M8.136,317.571v23.858l23.831-0.021l0.041-23.838H8.136z"/>
</g>
</svg>
