<?xml version="1.0" encoding="utf-8"?>
<!-- Generator: Adobe Illustrator 16.0.0, SVG Export Plug-In . SVG Version: 6.00 Build 0)  -->
<!DOCTYPE svg PUBLIC "-//W3C//DTD SVG 1.1//EN" "http://www.w3.org/Graphics/SVG/1.1/DTD/svg11.dtd">
<svg version="1.1" id="Capa_1" xmlns="http://www.w3.org/2000/svg" xmlns:xlink="http://www.w3.org/1999/xlink" x="0px" y="0px"
	 width="450px" height="77.154px" viewBox="0 0 450 77.154" enable-background="new 0 0 450 77.154" xml:space="preserve">
<g>
	<g>
		<g>
			<g>
				<path fill="#EA345F" d="M105.96,33.117c0.033-0.445,0.173-1.277,0.396-2.492c0.229-1.212,0.497-2.605,0.808-4.183
					c0.321-1.574,0.649-3.237,1.022-4.992c0.346-1.755,0.711-3.438,1.071-5.06l3.366-15.178h14.045l4.236,18.618
					c0.227,1.077,0.457,2.227,0.685,3.438c0.215,1.216,0.416,2.407,0.572,3.579c0.148,1.171,0.299,2.289,0.433,3.371
					c0.14,1.08,0.256,2.041,0.343,2.897h0.339c0.042-0.763,0.149-1.729,0.329-2.897c0.184-1.169,0.369-2.368,0.575-3.61
					c0.207-1.238,0.403-2.429,0.609-3.575c0.195-1.142,0.369-2.078,0.505-2.795l2.298-10.251h-3.708V1.213h19.282v8.775h-3.706
					l-10.054,38.375h-15.982l-4.049-16.055c-0.137-0.585-0.292-1.244-0.471-1.984c-0.176-0.746-0.34-1.5-0.471-2.267
					c-0.134-0.756-0.271-1.504-0.41-2.221c-0.12-0.725-0.242-1.352-0.34-1.896h-0.266c-0.092,0.504-0.19,1.114-0.31,1.859
					c-0.099,0.742-0.235,1.507-0.402,2.297c-0.156,0.783-0.311,1.538-0.472,2.255c-0.161,0.723-0.302,1.331-0.429,1.825
					l-4.121,16.187H96.041L87.136,9.988h-3.779V1.213h22.262v8.775h-3.919l1.753,9.843c0.192,0.809,0.383,1.863,0.614,3.174
					c0.227,1.301,0.43,2.617,0.637,3.941c0.209,1.327,0.375,2.566,0.543,3.711c0.149,1.146,0.275,1.969,0.372,2.46H105.96z"/>
			</g>
			<g>
				<polygon fill="#EA345F" points="156.841,1.213 197.51,1.213 197.51,16.127 185.85,16.127 185.85,10.119 175.055,10.119 
					175.055,19.424 187.869,19.424 187.869,28.397 175.055,28.397 175.055,39.395 185.85,39.395 185.85,33.117 197.51,33.117 
					197.51,48.363 156.841,48.363 156.841,39.395 161.097,39.395 161.097,10.119 156.841,10.119 				"/>
			</g>
			<g>
				<path fill="#EA345F" d="M201.318,48.363v-17h12.546c0,1.445,0.317,2.588,0.938,3.439c0.639,0.857,1.387,1.522,2.269,1.987
					c0.882,0.479,1.798,0.802,2.765,0.981c0.972,0.186,1.81,0.298,2.535,0.34c0.577,0,1.211-0.042,1.882-0.137
					c0.674-0.087,1.291-0.256,1.854-0.507c0.564-0.24,1.033-0.582,1.418-1.008c0.384-0.429,0.572-0.998,0.572-1.718
					c0-0.856-0.639-1.568-1.908-2.127c-1.291-0.562-2.891-1.117-4.809-1.656c-1.904-0.536-3.982-1.153-6.234-1.85
					c-2.249-0.698-4.321-1.654-6.229-2.867c-1.922-1.217-3.515-2.76-4.799-4.627c-1.278-1.862-1.922-4.234-1.922-7.117
					c0-2.467,0.522-4.624,1.585-6.467c1.055-1.849,2.389-3.354,3.982-4.521c1.59-1.168,3.329-2.044,5.19-2.636
					C214.818,0.293,216.594,0,218.25,0c1.399,0,2.791,0.127,4.186,0.369c1.387,0.252,2.722,0.643,3.982,1.186
					c1.25,0.536,2.4,1.247,3.4,2.121c1.016,0.878,1.854,1.945,2.529,3.204l0.679-5.667h11.598v16.933h-12.207
					c0-1.259-0.231-2.369-0.679-3.34c-0.44-0.964-1.065-1.786-1.851-2.463c-0.788-0.666-1.711-1.179-2.772-1.518
					c-1.047-0.337-2.163-0.505-3.334-0.505c-0.494,0-1.008,0.081-1.553,0.237c-0.543,0.161-1.041,0.382-1.511,0.671
					c-0.477,0.297-0.859,0.664-1.147,1.114c-0.297,0.453-0.445,0.968-0.445,1.556c0,1.166,0.663,2.133,1.99,2.897
					c1.331,0.765,2.984,1.483,4.958,2.157c1.98,0.676,4.121,1.411,6.413,2.195c2.29,0.787,4.421,1.761,6.411,2.933
					c1.969,1.17,3.624,2.628,4.945,4.387c1.338,1.752,2.003,3.955,2.003,6.611c0,2.652-0.559,4.878-1.662,6.672
					c-1.095,1.803-2.513,3.272-4.246,4.423c-1.724,1.145-3.648,1.963-5.771,2.457c-2.111,0.498-4.172,0.747-6.203,0.747
					c-1.706,0-3.273-0.181-4.713-0.539c-1.443-0.366-2.746-0.833-3.918-1.423c-1.169-0.582-2.217-1.242-3.143-1.983
					c-0.914-0.743-1.692-1.496-2.325-2.264l-0.735,5.194H201.318z"/>
			</g>
			<g>
				<polygon fill="#EA345F" points="293.553,1.213 293.553,18.75 283.641,18.75 283.641,10.119 277.972,10.119 277.972,39.395 
					283.576,39.395 283.576,48.363 258.486,48.363 258.486,39.395 264.014,39.395 264.014,10.119 258.209,10.119 258.209,18.75 
					248.3,18.75 248.3,1.213 				"/>
			</g>
		</g>
		<g>
			<polygon fill="#EA345F" points="331.067,10.352 335.918,10.352 335.918,27.142 318.527,1.213 298.204,1.213 298.204,10.352 
				302.317,10.352 302.317,41.586 298.146,41.586 298.146,50.721 319.88,50.721 319.88,41.586 314.429,41.586 314.429,23.736 
				332.485,50.721 347.707,50.721 347.707,10.352 352.386,10.352 352.386,1.213 331.067,1.213 			"/>
			<polygon fill="#EA345F" points="356.115,10.563 360.576,10.563 360.576,41.294 356.115,41.294 356.115,50.721 398.825,50.721 
				398.825,34.713 386.572,34.713 386.572,41.294 375.242,41.294 375.242,29.756 388.695,29.756 388.695,20.335 375.242,20.335 
				375.242,10.563 386.572,10.563 386.572,16.865 398.825,16.865 398.825,1.213 356.115,1.213 			"/>
			<polygon fill="#EA345F" points="402.479,1.213 402.479,19.627 412.888,19.627 412.888,10.563 418.984,10.563 418.984,41.294 
				413.171,41.294 413.171,50.721 439.513,50.721 439.513,41.294 433.644,41.294 433.644,10.563 439.598,10.563 439.598,19.627 
				450,19.627 450,1.213 			"/>
		</g>
		
			<linearGradient id="SVGID_1_" gradientUnits="userSpaceOnUse" x1="3774.2197" y1="-3776.4712" x2="3850.1191" y2="-3776.4712" gradientTransform="matrix(-1 0 0 -1 3850.1191 -3737.3809)">
			<stop  offset="0" style="stop-color:#31A198"/>
			<stop  offset="1" style="stop-color:#00A2D6"/>
		</linearGradient>
		<path fill="url(#SVGID_1_)" d="M0.144,1.349h25.254l0.005,25.258H0.144V1.349z M75.899,26.633l-0.008-25.25H50.645v25.246
			L75.899,26.633z M0.144,77h25.273l-0.015-25.264H0.144V77z M75.899,77.03V51.771H50.636l0.009,25.259H75.899z M42.285,18.234
			h-8.71l0.01,8.376h-8.183v8.281h-8.475v8.709l8.47-0.006l0.005,8.158v0.127h8.173v8.372h8.71V51.88h8.173l0.2-0.127l-0.014-8.158
			h8.291v-8.703h-8.291l0.014-8.281h-8.373V18.234z M33.575,68.313v8.707h8.71l0.018-8.707H33.575z M42.285,9.852V1.15h-8.71v8.701
			H42.285z M0.013,34.724L0,43.433l8.708,0.002v-8.713L0.013,34.724z M75.872,43.433v-8.709l-8.704,0.005l-0.004,8.704H75.872z"/>
	</g>
	<g>
		<path fill="#535355" d="M87.987,59.21h4.702v17.642h-4.702V59.21z"/>
		<path fill="#535355" d="M96.279,59.21h5.988l5.966,11.979h0.05l-0.074-11.979h4.295v17.642h-5.838l-6.167-12.058h-0.052
			l0.153,12.058h-4.321V59.21z"/>
		<path fill="#535355" d="M118.9,62.696h-4.35V59.21h13.396v3.486h-4.347v14.155h-4.7V62.696z"/>
		<path fill="#535355" d="M129.793,59.21h12.437v3.334h-7.734v3.641h7.305v3.338h-7.305v3.991h8.012v3.338h-12.714V59.21z"/>
		<path fill="#535355" d="M145.236,59.21h8.393c3.133,0,5.687,1.415,5.687,4.447c0,2.352-1.112,3.918-3.388,4.448v0.051
			c1.517,0.404,1.618,1.744,2.502,3.892l1.719,4.804h-4.902l-1.012-3.187c-0.96-3.032-1.567-3.789-3.311-3.789h-0.986v6.976h-4.701
			V59.21z M149.938,66.539h1.238c1.517,0,3.438-0.051,3.438-2.047c0-1.643-1.644-1.948-3.438-1.948h-1.238V66.539z"/>
		<path fill="#535355" d="M162.298,59.21h5.99l5.966,11.979h0.05l-0.076-11.979h4.297v17.642h-5.838l-6.167-12.058h-0.052
			l0.153,12.058h-4.323V59.21z"/>
		<path fill="#535355" d="M181.76,59.21h12.436v3.334h-7.734v3.641h7.306v3.338h-7.306v3.991h8.013v3.338H181.76V59.21z"/>
		<path fill="#535355" d="M200.362,62.696h-4.348V59.21h13.396v3.486h-4.348v14.155h-4.701V62.696z"/>
		<path fill="#535355" d="M219.42,59.21h4.776c3.667,0,6.194,1.188,6.194,4.447c0,2.427-1.418,3.641-3.641,4.196v0.052
			c2.4,0.2,4.094,1.769,4.094,4.245c0,3.791-3.135,4.701-6.723,4.701h-4.701V59.21z M221.947,66.741h1.39
			c2.452,0,4.526-0.228,4.526-2.83c0-2.099-1.796-2.63-3.262-2.63h-2.654V66.741z M221.947,74.778h1.895
			c2.276,0,4.323-0.48,4.323-2.855c0-2.73-2.401-3.11-4.575-3.11h-1.643V74.778z"/>
		<path fill="#535355" d="M240.602,59.21h2.652l7.455,17.642h-2.754l-1.794-4.449h-8.645l-1.796,4.449h-2.652L240.602,59.21z
			 M241.838,61.586l-3.513,8.745h7.026L241.838,61.586z"/>
		<path fill="#535355" d="M253.236,59.21h3.439l7.785,14.204h0.051V59.21h2.528v17.642h-3.236l-7.987-14.509h-0.052v14.509h-2.528
			V59.21z"/>
		<path fill="#535355" d="M271.36,59.21h5.207c5.23,0,9.402,3.235,9.402,8.669c0,5.914-3.589,8.973-9.402,8.973h-5.207V59.21z
			 M273.888,74.627h2.654c4.348,0,6.749-2.099,6.749-6.646c0-4.121-2.806-6.546-6.445-6.546h-2.958V74.627z"/>
		<path fill="#535355" d="M295.347,59.21H298l7.457,17.642h-2.755l-1.796-4.449h-8.644l-1.793,4.449h-2.655L295.347,59.21z
			 M296.587,61.586l-3.515,8.745h7.027L296.587,61.586z"/>
		<path fill="#535355" d="M320.622,59.21h2.653l7.457,17.642h-2.756l-1.795-4.449h-8.645l-1.793,4.449h-2.655L320.622,59.21z
			 M321.859,61.586l-3.513,8.745h7.027L321.859,61.586z"/>
		<path fill="#535355" d="M333.26,59.21h3.438l7.784,14.204h0.05V59.21h2.527v17.642h-3.234l-7.986-14.509h-0.051v14.509h-2.527
			V59.21z"/>
		<path fill="#535355" d="M363.717,62.116c-1.113-0.657-2.351-0.986-3.641-0.986c-4.069,0-6.773,2.933-6.773,6.899
			c0,4.145,2.981,6.9,6.646,6.9c1.264,0,2.957-0.327,3.843-0.859l0.151,2.453c-1.34,0.556-2.982,0.631-4.019,0.631
			c-5.585,0-9.301-3.59-9.301-9.2c0-5.434,3.942-9.047,9.325-9.047c1.366,0,2.706,0.199,3.969,0.756L363.717,62.116z"/>
		<path fill="#535355" d="M367.103,59.21h2.528v7.38h8.441v-7.38h2.528v17.642h-2.528v-8.039h-8.441v8.039h-2.528V59.21z"/>
		<path fill="#535355" d="M390.812,59.21h2.653l7.457,17.642h-2.756l-1.795-4.449h-8.645l-1.793,4.449h-2.655L390.812,59.21z
			 M392.051,61.586l-3.514,8.745h7.026L392.051,61.586z"/>
	</g>
</g>
</svg>
